DataType=double
version=3
OpenSimVersion=4.4-2022-07-23-0e9fedc
endheader
time	Glut_Max_l	Glut_Med_l	Rect_Fem_l	Vast_Lat_l	Bice_Fem_l	Tibi_Ant_l	Gast_Med_l	Sol_l	Gast_Lat_l	Pero_Lon_l	Glut_Max_r	Glut_Med_r	Rect_Fem_r	Vast_Lat_r	Bice_Fem_r	Tibi_Ant_r	Gast_Med_r	Sol_r	Gast_Lat_r	Pero_Lon_r
6.915	0.1429310875994797	0.4930752932619286	0.09108382637568041	0.07179202998603403	0.5269567131441149	0.02598296671155011	0.7269316021443399	0.1321588435424851	0.1711133531105652	0.03381997703853195	0.3686265220237381	0.7542850436945348	0.1005789192832178	0.545033299666781	0.04679148014716584	0.264843922637056	0.09520442429817086	0.1547789456169327	0.2244859882591148	0.5470420769728025
6.916	0.1423598869684291	0.4913579775548335	0.09092575953104708	0.07068542297401686	0.5278261018440678	0.02546071304566451	0.7287949118536549	0.1315966613371997	0.1712344198710106	0.03349473943964919	0.3699835241452693	0.7598805804400598	0.1015657931857984	0.5484427328583534	0.0472908516135884	0.2649418843345875	0.09552826994488431	0.1537688684149963	0.227278647952998	0.5505514326514586
6.917	0.1417742970525142	0.4896435722415325	0.09081291026929753	0.06963038115448482	0.5285762549586778	0.02493646820635607	0.7305180795398969	0.1310043120021839	0.1713579428393283	0.03318250548152733	0.3712988982634164	0.765364562979005	0.1025437105465641	0.5517822348682812	0.04783379689004901	0.2649972666480587	0.09584997745153555	0.1527417292175497	0.2300584896515146	0.5540344090758232
6.918	0.1411746695942618	0.4879325741665103	0.0907451928804948	0.06862646865841129	0.5292070725043015	0.02441114691159014	0.7320993155912324	0.1303821566997647	0.1714834771853746	0.03288480504766281	0.3725717522762548	0.7707345708100587	0.1035118476819429	0.5550501132216991	0.04841933465732724	0.2650099139807592	0.09616932690936861	0.1516989863455695	0.2328231578173396	0.5574912129872627
6.919	0.1405613674420815	0.4862254251981436	0.0907224874578729	0.06767321454601273	0.5297185547268268	0.02388569274334785	0.7335369446984397	0.1297305879987417	0.1716105677543985	0.03260319381617289	0.3738012365372292	0.7759882711677165	0.1044693841865683	0.5582447252011566	0.04904645741323733	0.2649796873794929	0.09648610069020823	0.1506421429080053	0.235570295998607	0.5609220453273999
6.92	0.1399347641990117	0.4845225128619415	0.09074464024802209	0.06677011396980848	0.5301108006860932	0.02336107759165796	0.734829408848404	0.1290500293655146	0.1717387501886444	0.03233925140095414	0.3749865458756766	0.7811234197330619	0.105415503922607	0.5613644790635894	0.04971413188253052	0.2649064653616209	0.09680008396914661	0.1495727462868366	0.2382975499987375	0.5643270985765519
6.921	0.1392952438693797	0.4828241710491583	0.09081146402773393	0.06591662936580565	0.5303840066820403	0.02283830104913714	0.7359752701516842	0.1283409346171329	0.1718675520676106	0.03209457943905601	0.3761269215552927	0.7861378611572436	0.1063493960147073	0.5644078351316534	0.05042129944802832	0.2647901447903109	0.09711106525290632	0.1484923875592273	0.2410025710574348	0.5677065541467117
6.922000000000001	0.1386432005051925	0.4811306807950074	0.09092273850556785	0.06511219167041872	0.5305384645252191	0.02231838975584558	0.7369732134964075	0.1276037873368964	0.1719964940643482	0.03187079962613158	0.3772216531634179	0.7910295294040205	0.1072702558494855	0.567373306753632	0.05116687660292609	0.2646306417907884	0.09741883691172132	0.1474027008537411	0.2436830190419148	0.5710605798380768
6.923	0.1379790378538027	0.4794422711223051	0.09107821074618783	0.06435620156063175	0.5305745596556563	0.02180239669428066	0.7378220490217248	0.1268391002527325	0.1721250911148307	0.03166955170185733	0.3782700804238071	0.7957964479167731	0.1081772860784181	0.5702594611286672	0.05194975542429546	0.264427892699675	0.09772319571249212	0.1463053626374219	0.2463365656475737	0.574389327368516
6.924	0.1373031690081034	0.4777591199476713	0.09127759561555737	0.06364803071477856	0.5304927691159668	0.02129140043432604	0.7385207144053537	0.1260474145782506	0.1722528535969982	0.03149249138722108	0.3792715949250218	0.8004367296155965	0.109069697622977	0.5730649199976038	0.05276880406801539	0.2641818550389722	0.09802394335088138	0.1452020909304419	0.2489608976071974	0.5776929299856745
6.925000000000001	0.1366160160602376	0.4760813550478609	0.09152057624516335	0.06298702309117402	0.5302936593872967	0.02078650432798719	0.7390682769607685	0.1252292993161858	0.1723792885155556	0.03134128827557017	0.3802256417558605	0.8049485767325432	0.1099467106808963	0.5757883602032822	0.05362286728562755	0.2638925085058911	0.09832088697996788	0.1440946444450609	0.2515537199076005	0.5809715001717803
6.926	0.1359180097595648	0.474409055083395	0.09180680451355852	0.06237249622171982	0.5299778840999495	0.0202888356538134	0.7394639355399671	0.1243853505239917	0.1725039006880713	0.03121762367930047	0.3811317210384345	0.80933028049766	0.110807555732536	0.5784285141266629	0.05451076696382421	0.2635598559694464	0.09861383973311549	0.1429848216459439	0.2541127590123519	0.5842251274518591
6.927	0.1352095891754211	0.4727422506758677	0.09213590154365867	0.06180374251755779	0.5295461816336421	0.01979954471103608	0.7397070222375455	0.1235161905416434	0.1726261939274887	0.03112318843405887	0.3819893893486633	0.8135802206937101	0.1116514745463527	0.5809841700062952	0.0554313026873656	0.2631839244645724	0.09890262123883482	0.141874459729565	0.2566357660889363	0.5874538763166461
6.928000000000001	0.1344912013650162	0.4710809255347468	0.09250745821434933	0.06128003058384757	0.5289993726243712	0.01931980386360493	0.7397970038915469	0.1226224671821602	0.1727456722158367	0.03105968066234087	0.3827982610132887	0.8176968651015615	0.1124777211824561	0.5834541721488147	0.05638325232620445	0.2627647661745678	0.0991870581255507	0.1407654335213852	0.2591205202382231	0.5906577842714208
6.929	0.1337633010466505	0.4694250176296552	0.09292103568497442	0.06080060654077569	0.5283383573955355	0.01885080653441872	0.7397334833770305	0.1217048528857991	0.1728618408636828	0.03102880349838798	0.383558009272197	0.821678768860047	0.1132855629931878	0.5858374210383905	0.05736537264753471	0.2623024593929894	0.09946698451426486	0.1396596542904375	0.2615648317234183	0.5938368600210444
6.930000000000001	0.133026350278304	0.4677744204049636	0.09337616593118428	0.06036469534791447	0.5275641133305958	0.01839376615010073	0.7395162006898628	0.1207640438391618	0.1729742076496594	0.03103226277631307	0.3842683672950763	0.8255245737637077	0.1140742816196538	0.5881328733542054	0.05837639995342658	0.2617971094565832	0.0997422424970945	0.138559068481589	0.2639665451948164	0.5969910818001301
6.931	0.1322808181415296	0.4661289840345563	0.09387235229047845	0.05997150212902116	0.5266776922036754	0.01794991503668092	0.7391450338206008	0.11980075906057	0.1730822839342878	0.03107176468338739	0.3849291290421304	0.8292330075199909	0.1148431739831467	0.5903395419071406	0.05941505074468308	0.2612488496411962	0.1000126825995992	0.1374656563659778	0.2663235429057442	0.6001203958558835
6.932	0.1315271804304135	0.4644885167152398	0.0944090700156604	0.05962021349431438	0.5256802174834009	0.01752050326655805	0.7386199994206755	0.1188157394530763	0.1731855857425018	0.03114901338040959	0.3855401499594363	0.8328028829849587	0.1155915532703747	0.5924564955090053	0.06048002241155111	0.260657842012634	0.1002781642247294	0.1363814306100903	0.2686337479142178	0.6032247150897628
6.933	0.1307659193451689	0.4628527859972185	0.09498576683437907	0.05930999885722186	0.5245728816240975	0.01710679745714868	0.7379412532646619	0.1178097468265199	0.1732836348099072	0.03126570859106809	0.3861013475002222	0.8362330973939254	0.1163187499113665	0.5944828587890107	0.06156999395194145	0.2600242782240653	0.1005385560761834	0.1353084347638897	0.2708951272640547	0.6063039178624958
6.934	0.1299975231897521	0.4612215201496024	0.09560186351299867	0.05904001174256642	0.5233569433572505	0.01671007952168705	0.7371090905130862	0.1167835628901979	0.1733759595888726	0.03142354316225986	0.3866127014637523	0.8395226316007557	0.1170241125489	0.5964178119724924	0.06268362671785303	0.2593483802509319	0.1007937365589606	0.1342487416685138	0.2731056951384911	0.6093578469651201
6.935	0.1292224860727902	0.4595944095584847	0.09625675442318278	0.0588093910831223	0.5220337249949059	0.0163316453727095	0.7361239457805385	0.1157379882179705	0.1734620962117634	0.03162420059747815	0.3870742541440103	0.8426705493367579	0.1177070089983007	0.598260590636334	0.06381956519074145	0.2586304010535665	0.1010435941549058	0.1332044517843259	0.2752635159786709	0.6123863087567136
6.936	0.1284413076110859	0.4579711081550967	0.09694980810970923	0.05861726250143295	0.5206046097553823	0.01597280357884521	0.7349863930145115	0.1146738411878592	0.1735415894096962	0.03186935256559962	0.3874861102814887	0.8456759964971232	0.1183668271964024	0.6000104854545548	0.06497643778658245	0.2578706251570095	0.1012880277709896	0.132177691440366	0.2773667075586451	0.6153890724675116
6.937	0.1276544926349329	0.4563512348720709	0.09768036785807192	0.05846273957378312	0.5190710391202698	0.01563487397565628	0.7336971451913995	0.113591956898397	0.1736139933859434	0.03216065638759945	0.3878484368134245	0.8485382004598505	0.1190029761383244	0.6016668419463134	0.06615285769135268	0.2570693691371673	0.1015269470579503	0.1311706110063336	0.2794134440077958	0.6183658696642935
6.938000000000001	0.1268625508943883	0.4547343751268385	0.09844775226044852	0.05834492507332026	0.5174345102302338	0.01531918623142665	0.7322570538367874	0.1124931860641506	0.1736788726436052	0.03249975250383585	0.3881614624206279	0.8512564694394075	0.1196148868005331	0.6032290602371927	0.06734742372761872	0.2562269820027594	0.1017602726967919	0.1301853829881163	0.2814019587710553	0.6213163938734345
6.939	0.1260659967655232	0.4531200823323774	0.0992512557787798	0.05826291218954457	0.5156965733257415	0.01502707836895933	0.7306671083769121	0.111378393893018	0.1737358027674596	0.03288826192459788	0.3884254768721628	0.8538301918755501	0.1202020130485073	0.6046965948430866	0.06855872125292148	0.2553438454635644	0.1019879366505506	0.1292242000476432	0.2833305474970484	0.6242403003559585
6.94	0.125265348955576	0.4515078794365081	0.100090149304086	0.05821578572169497	0.513858829237533	0.01475989524456425	0.7289284353270085	0.1102484589481025	0.1737843711600063	0.03332778366668492	0.3886408301719452	0.8562588358572273	0.1207638325272884	0.6060689544843952	0.06978532309064048	0.2544203740770548	0.1022098823787236	0.1282892729476214	0.2851975708442839	0.6271372060282924
6.941000000000001	0.1244611302058875	0.4498972604914805	0.1009636807115882	0.05820262324388128	0.5119229269304159	0.01451898698549571	0.727042297320601	0.1091042719971136	0.1738241777316658	0.03381989217892704	0.3888079315132974	0.8585419485822174	0.1212998475332638	0.6073457019368956	0.07102579049397487	0.2534570152672793	0.1024260650118596	0.1273828284215877	0.2870014571956094	0.6300066895218389
6.942	0.1236538669914832	0.4482876922558025	0.1018710754114708	0.05822249624010489	0.5098905611027295	0.01430570738716248	0.7250100919823093	0.1079467348523002	0.1738548355449642	0.03436613475971527	0.3889272480484098	0.8606791558543461	0.1218095858656365	0.6085264539248182	0.07227867414356728	0.2524542492115789	0.1026364514841032	0.1265071069697728	0.2887407052712342	0.6328482913735411
